<svg width="48" height="48" viewBox="0 0 48 48" fill="none" xmlns="http://www.w3.org/2000/svg">
  <path d="M47.5039 11.3828C47.5039 5.17188 42.416 0.0839844 36.2051 0.0839844C31.3906 0.0839844 27.25 3.14062 25.6387 7.4082H8.43164V1.71484H6.39062V7.41797H0.492188V47.916H43.334V20.123C45.873 18.0527 47.5039 14.8984 47.5039 11.3828ZM36.2051 2.125C41.3906 2.125 45.5703 6.19727 45.4629 11.3828C45.4629 16.4707 41.293 20.6406 36.2051 20.6406C31.1172 20.6406 26.9473 16.4707 26.9473 11.3828C26.9473 6.29492 31.1172 2.125 36.2051 2.125ZM25.082 9.44922C24.9746 10.0742 24.916 10.7285 24.916 11.3828C24.916 13.8926 25.7461 16.2168 27.1523 18.1016H2.42578V9.44922H25.082ZM41.293 45.875H2.42578V20.1328H29.0859V20.123C31.0293 21.7148 33.5195 22.6719 36.2051 22.6719C38.0312 22.6719 39.7598 22.2324 41.293 21.4512V45.875Z" fill="#232323" />
  <path d="M41.498 13.5215L37.2305 10.7676V3.0332H35.2969V11.8906L40.3848 15.25L41.498 13.5215Z" fill="#232323" />
  <path d="M12.1914 28.2773H14.7402V39.2637H17.6895V25.7285H12.1914V28.2773Z" fill="#232323" />
  <path d="M26.0293 25.3184C24.1934 25.3184 22.7773 25.9336 21.8594 27.252C20.9414 28.4727 20.4336 30.2012 20.4336 32.3398C20.4336 34.4785 20.9414 36.1094 21.8594 37.4277C22.7773 38.7461 24.2031 39.3613 26.0293 39.3613C27.9629 39.3613 29.2812 38.7461 30.1992 37.4277C31.1172 36.207 31.625 34.4785 31.625 32.3398C31.625 30.2012 31.1172 28.5703 30.1992 27.252C29.291 25.9336 27.8652 25.3184 26.0293 25.3184ZM28.168 35.6016C27.6602 36.4121 27.0449 36.8223 26.1367 36.8223C25.2187 36.8223 24.5059 36.4121 24.1055 35.6016C23.6953 34.791 23.4902 33.668 23.4902 32.3496C23.4902 31.0312 23.6953 29.9082 24.1055 29.0977C24.5156 28.2871 25.1211 27.877 26.1367 27.877C27.0547 27.877 27.7676 28.2871 28.168 29.0977C28.5781 29.9082 28.7832 31.0312 28.7832 32.3496C28.7832 33.668 28.5781 34.791 28.168 35.6016Z" fill="#232323" />
</svg>