<svg width="50" height="50" viewBox="0 0 50 50" fill="none" xmlns="http://www.w3.org/2000/svg">
  <g clip-path="url(#clip0_2505_133437)">
    <path d="M49.7481 13.4792C49.3809 12.4343 48.6699 11.7967 47.5844 11.5728C47.4412 11.5422 47.2992 11.5031 47.1548 11.4774C46.1843 11.3073 45.8808 11.0051 45.6703 10.0262C45.6489 9.91402 45.6519 9.79859 45.6792 9.68773C45.7064 9.57687 45.7572 9.47319 45.8282 9.38375C46.0534 9.08396 46.2629 8.77274 46.456 8.45134C47.0287 7.39045 47.0263 6.34302 46.281 5.3788C45.7418 4.65937 45.0965 4.02605 44.367 3.50053C43.4675 2.87281 42.5068 2.88872 41.5412 3.35859C41.1939 3.54091 40.8659 3.75778 40.5621 4.00589C40.434 4.1215 40.2732 4.19463 40.1019 4.21522C39.9305 4.23582 39.757 4.20287 39.6051 4.12091C39.4728 4.05683 39.3363 4.00204 39.1964 3.95694C38.7252 3.80644 38.4621 3.50053 38.4352 2.99762C38.4033 2.68898 38.3418 2.38412 38.2516 2.08724C38.1091 1.50347 37.7773 0.983321 37.3079 0.60808C36.8385 0.232839 36.258 0.0236439 35.6571 0.0131831C35.0219 -0.000276878 34.388 -0.000276878 33.7492 0.0119594C33.173 0.029046 32.6166 0.22577 32.1578 0.574615C31.6989 0.92346 31.3606 1.40698 31.1902 1.95753C31.0767 2.38335 30.9917 2.81625 30.9356 3.25336C30.918 3.383 30.8672 3.50589 30.7881 3.61009C30.709 3.71429 30.6042 3.79626 30.4841 3.84804C30.4074 3.87633 30.3326 3.90944 30.2601 3.94716C29.6249 4.35707 29.0755 4.2653 28.4978 3.77095C27.662 3.05758 26.6866 2.8312 25.617 3.20686C24.819 3.48829 22.9943 5.34454 22.7129 6.14357C22.4814 6.78044 22.5059 7.48225 22.7814 8.10138C22.9038 8.38771 23.0262 8.68873 23.2489 8.89919C23.9979 9.6089 23.7005 10.3357 23.3321 11.0773C23.2835 11.1612 23.2157 11.2323 23.1342 11.2849C23.0527 11.3374 22.9599 11.3698 22.8634 11.3795C22.5122 11.4554 22.1548 11.4945 21.8048 11.574C20.4243 11.8873 19.5885 12.92 19.5824 14.3431C19.5824 14.9133 19.5824 15.4848 19.5824 16.0562C19.5731 16.6568 19.7641 17.2434 20.1253 17.7233C20.4866 18.2033 20.9974 18.5492 21.5772 18.7066C21.9554 18.8086 22.3407 18.8818 22.73 18.9256C22.8765 18.9389 23.0165 18.9924 23.1344 19.0803C23.2524 19.1682 23.3437 19.287 23.3982 19.4236C23.479 19.6023 23.5451 19.7907 23.6332 19.9608C23.8535 20.394 23.7739 20.7709 23.4777 21.1379C23.215 21.4509 22.9937 21.7963 22.8193 22.1658C22.3873 23.1312 22.495 24.0502 23.0947 24.8994C23.6144 25.6336 24.254 26.2752 24.9867 26.7972C25.9547 27.4898 27.1088 27.4984 28.1037 26.8547C28.3644 26.6859 28.6312 26.5256 28.8735 26.3323C29.0081 26.2111 29.1785 26.1371 29.3589 26.1215C29.5393 26.1058 29.7199 26.1493 29.8734 26.2454C29.9727 26.3022 30.0782 26.3474 30.1879 26.38C30.7129 26.5195 30.9528 26.8596 31.0005 27.4005C31.0568 28.0196 31.1975 28.6241 31.5794 29.1442C32.1264 29.8881 32.8436 30.3029 33.7822 30.2993C34.3684 30.2993 34.9559 30.2993 35.5433 30.2993C36.9482 30.2993 37.9995 29.4427 38.3054 28.0723C38.3789 27.737 38.4278 27.398 38.4866 27.0603C38.5367 26.7777 38.6983 26.6272 38.9443 26.4803C39.7079 26.0202 40.3382 26.0765 41.059 26.6651C42.3036 27.6819 43.8738 27.5216 44.9238 26.3677C45.2909 25.9566 45.7119 25.5871 46.095 25.1857C46.4943 24.7718 46.7513 24.2413 46.8286 23.6714C46.9058 23.1015 46.7993 22.5218 46.5245 22.0165C46.311 21.6323 46.0697 21.2643 45.8025 20.9152C45.7153 20.8161 45.6601 20.693 45.6442 20.562C45.6283 20.431 45.6523 20.2982 45.7132 20.1811C45.773 20.0638 45.8209 19.9408 45.8563 19.814C46.0105 19.2217 46.3728 18.9036 46.9994 18.873C47.2753 18.8421 47.5475 18.7839 47.812 18.6992C48.6956 18.4729 49.2965 17.9235 49.6575 17.0926C49.7334 16.9152 49.7162 16.6558 49.9977 16.6215V13.7827C49.7848 13.79 49.7909 13.604 49.7481 13.4792ZM47.4559 15.8714C47.4657 16.2079 47.3237 16.3792 46.9871 16.4294C46.423 16.5138 45.8649 16.6338 45.302 16.717C44.6595 16.8124 44.2213 17.1367 44.0329 17.7693C43.8158 18.5021 43.5221 19.21 43.1566 19.8813C42.8311 20.4747 42.8923 21.0254 43.2998 21.565C43.6425 22.019 43.9521 22.4986 44.285 22.9624C44.4465 23.1875 44.4967 23.4029 44.285 23.6182C43.9056 24 43.5246 24.3802 43.1419 24.7587C43.0734 24.8293 42.9817 24.8727 42.8837 24.881C42.7224 24.8608 42.5703 24.7945 42.4456 24.6901C41.9793 24.361 41.5069 24.0416 41.0443 23.7112C40.5487 23.3527 40.0334 23.2879 39.4889 23.5803C38.7855 23.9551 38.0479 24.2616 37.286 24.4956C36.7035 24.6767 36.3718 25.0756 36.2825 25.6886C36.2017 26.2527 36.0805 26.8107 35.9937 27.3736C35.9374 27.7333 35.7819 27.9279 35.3817 27.9071C34.9436 27.8838 34.5018 27.8887 34.0613 27.9071C33.688 27.9218 33.491 27.7847 33.4396 27.3956C33.3674 26.8315 33.2462 26.2735 33.152 25.7119C33.0504 25.116 32.7506 24.6926 32.1533 24.509C31.3756 24.2723 30.623 23.9595 29.9064 23.5754C29.3741 23.2866 28.8735 23.3637 28.3938 23.6978C27.9141 24.0318 27.449 24.339 26.9974 24.6853C26.6572 24.9459 26.3965 24.9141 26.1175 24.5984C25.8385 24.2827 25.5301 23.9866 25.2192 23.6978C24.9537 23.4531 24.9414 23.2157 25.1495 22.9306C25.4946 22.457 25.8226 21.9712 26.1652 21.4952C26.5214 20.9997 26.5887 20.4833 26.295 19.9376C25.9173 19.2357 25.6106 18.4978 25.3795 17.735C25.1911 17.1232 24.7578 16.8112 24.1362 16.7157C23.5891 16.6313 23.0482 16.5065 22.4999 16.4355C22.1205 16.3854 21.9529 16.219 21.9688 15.8311C21.9908 15.3912 21.9908 14.9506 21.9688 14.5108C21.9431 14.0898 22.1462 13.932 22.5293 13.8769C23.0776 13.7974 23.6185 13.675 24.1655 13.5955C24.7774 13.5049 25.1825 13.1941 25.3661 12.6031C25.6058 11.8261 25.9193 11.0738 26.3023 10.3565C26.5887 9.82425 26.5103 9.32501 26.1701 8.84535C25.8299 8.36569 25.5289 7.90193 25.1911 7.44674C24.9549 7.13227 24.9463 6.87653 25.2461 6.59999C25.5717 6.30387 25.8801 5.98817 26.1811 5.66758C26.4259 5.40695 26.6597 5.3837 26.9497 5.59906C27.4196 5.94902 27.9104 6.27205 28.3852 6.61467C28.8809 6.97319 29.3912 7.03315 29.9407 6.73703C30.6428 6.36052 31.3807 6.05514 32.1435 5.82543C32.7555 5.64188 33.0712 5.21361 33.1642 4.58589C33.2462 4.03893 33.3723 3.49808 33.4445 2.9499C33.4934 2.57302 33.6586 2.39926 34.0478 2.41517C34.4871 2.4323 34.9289 2.43597 35.3683 2.41517C35.7575 2.39437 35.9337 2.57057 35.9912 2.93644C36.0818 3.51521 36.1944 4.09032 36.2874 4.6691C36.3804 5.24788 36.6729 5.6321 37.226 5.8034C38.0325 6.05823 38.8151 6.38333 39.5647 6.77497C40.0616 7.0307 40.5438 6.9683 40.9905 6.6526C41.48 6.30754 41.9842 5.96982 42.4701 5.61252C42.7515 5.4045 42.9865 5.38859 43.2386 5.65902C43.5605 6.0053 43.8982 6.33813 44.2397 6.66362C44.4722 6.88509 44.4783 7.10168 44.2984 7.35374C43.9472 7.8432 43.6082 8.34244 43.2582 8.83189C42.9082 9.32134 42.8433 9.84016 43.1358 10.3883C43.5103 11.0913 43.8156 11.8289 44.0475 12.5909C44.2262 13.177 44.6289 13.5025 45.2432 13.5906C45.7903 13.6701 46.3312 13.7937 46.8794 13.872C47.2833 13.9295 47.4914 14.1008 47.4632 14.5426C47.4351 14.9843 47.4436 15.4309 47.4559 15.8714Z" fill="#232323" />
    <path d="M35.1295 35.2257C34.6852 35.3303 34.2359 35.412 33.7833 35.4704C33.6284 35.484 33.4809 35.5425 33.3589 35.6388C33.2369 35.7351 33.1458 35.865 33.0967 36.0125C32.9156 36.4665 32.7785 36.94 32.5313 37.3658C32.3624 37.6583 32.4187 37.914 32.5986 38.1844C32.8875 38.62 33.2105 39.0324 33.4908 39.4705C33.8662 40.0219 34.058 40.6778 34.0389 41.3446C34.0198 42.0114 33.7907 42.6551 33.3843 43.1842C32.8471 43.9086 32.1703 44.5045 31.518 45.1188C30.2391 46.3216 28.5038 46.3216 27.2237 45.3402C26.8883 45.082 26.5383 44.8422 26.1847 44.6061C26.074 44.5227 25.9427 44.4711 25.8049 44.4569C25.6671 44.4427 25.528 44.4663 25.4026 44.5253C24.9364 44.7223 24.4811 44.9462 23.9989 45.1004C23.6575 45.2093 23.5021 45.4345 23.4519 45.7734C23.3723 46.3057 23.2903 46.838 23.1618 47.3641C22.8596 48.5939 22.1057 49.3929 20.888 49.7551C20.7485 49.7955 20.5368 49.7551 20.5319 49.9998H17.1052C17.1052 49.749 16.8751 49.7551 16.7258 49.6927C15.6746 49.2338 14.9586 48.4923 14.6906 47.3531C14.5682 46.8123 14.4765 46.2653 14.3859 45.7183C14.3443 45.4589 14.2403 45.2521 13.9771 45.1579C13.4693 44.9768 12.9773 44.7602 12.489 44.5326C12.1757 44.387 11.9028 44.436 11.6225 44.6428C11.2162 44.9425 10.8124 45.2472 10.3804 45.5128C8.98277 46.3693 7.47503 46.2017 6.31609 45.049C5.81759 44.5547 5.32113 44.0587 4.82671 43.5611C3.66286 42.3901 3.49643 40.8471 4.38124 39.457C4.66149 39.0165 4.97846 38.6005 5.28197 38.1759C5.37187 38.0693 5.42716 37.9378 5.4405 37.799C5.45384 37.6602 5.42458 37.5206 5.35662 37.3989C5.13474 36.9642 4.94376 36.5144 4.7851 36.0529C4.73828 35.8967 4.64555 35.7582 4.51896 35.6554C4.39237 35.5526 4.23778 35.4903 4.07529 35.4765C3.52723 35.4014 2.98382 35.2956 2.44762 35.1596C0.909291 34.7362 0.00611905 33.5481 0 31.9562C0 31.2721 0 30.5869 0 29.9017C0.00856667 28.311 0.963139 27.1008 2.51615 26.7141C3.03995 26.5844 3.57353 26.5122 4.10711 26.4229C4.3947 26.3752 4.64558 26.2773 4.73859 25.9628C4.89018 25.4975 5.07758 25.0446 5.2991 24.6083C5.479 24.2253 5.4533 23.8985 5.17672 23.5694C4.88574 23.1959 4.61686 22.8057 4.37145 22.4008C3.58332 21.1907 3.61269 19.8031 4.50852 18.6614C5.15903 17.8001 5.93738 17.0434 6.81662 16.4173C7.87155 15.6966 9.01948 15.6488 10.1515 16.2582C10.6826 16.5433 11.1599 16.9202 11.6507 17.2726C11.7626 17.3673 11.8999 17.427 12.0455 17.4442C12.1911 17.4614 12.3385 17.4353 12.4694 17.3693C12.9136 17.1661 13.3616 16.9691 13.8254 16.8101C13.982 16.7611 14.1205 16.6669 14.2235 16.5393C14.3266 16.4117 14.3895 16.2564 14.4042 16.093C14.4712 15.5765 14.571 15.0648 14.7029 14.561C14.8607 14.0324 15.3968 13.6751 15.8924 13.7351C16.437 13.7999 16.8384 14.2514 16.8715 14.8437C16.8816 15.0722 16.8673 15.3011 16.8286 15.5265C16.7185 16.2019 16.5839 16.8725 16.4725 17.5504C16.3844 18.1206 16.0711 18.5085 15.5081 18.6626C14.5208 18.9461 13.5668 19.335 12.6628 19.8226C12.429 19.9606 12.1586 20.0237 11.888 20.0034C11.6173 19.983 11.3594 19.8802 11.1489 19.7088C10.5444 19.2659 9.93245 18.8348 9.3132 18.4155C8.74413 18.0288 8.31824 18.0679 7.8177 18.5378C7.40161 18.9282 7.00387 19.3381 6.60368 19.7468C5.99178 20.3684 5.97097 20.744 6.48742 21.4599C6.90596 22.0435 7.32451 22.626 7.72347 23.2231C8.05757 23.7248 8.08204 24.2338 7.78833 24.7453C7.31635 25.5668 6.94881 26.444 6.69424 27.3565C6.49109 28.0907 6.02727 28.4223 5.30399 28.5239C4.58072 28.6254 3.85256 28.7466 3.13785 28.9118C2.54308 29.05 2.31667 29.3437 2.30076 29.9506C2.28485 30.5575 2.2922 31.1902 2.30076 31.8093C2.30811 32.5435 2.55164 32.847 3.27002 32.9938C3.9884 33.1406 4.71289 33.2654 5.43739 33.3756C6.07622 33.471 6.49109 33.7892 6.6612 34.4095C6.91072 35.307 7.2704 36.1701 7.73203 36.9792C8.11386 37.6607 8.05634 38.2774 7.5913 38.8905C7.16786 39.4497 6.77012 40.0272 6.38462 40.6133C6.01748 41.1701 6.04073 41.5213 6.48864 42.0242C6.91205 42.4975 7.36148 42.9468 7.83483 43.3702C8.35373 43.8388 8.70741 43.8596 9.28627 43.4828C9.88513 43.0871 10.4726 42.6748 11.0486 42.2457C11.6201 41.8186 12.1965 41.7697 12.8292 42.1123C13.6691 42.5842 14.5612 42.9566 15.4873 43.2221C16.0882 43.3849 16.4125 43.7862 16.4982 44.4054C16.5998 45.1493 16.743 45.886 16.8923 46.6214C17.033 47.3164 17.3426 47.5623 18.039 47.5721C18.6105 47.5783 19.182 47.5721 19.7523 47.5721C20.5808 47.566 20.8721 47.3372 21.0202 46.5247C21.1425 45.8517 21.2759 45.1787 21.3738 44.5008C21.4718 43.8229 21.8377 43.3824 22.5095 43.1854C23.4041 42.9305 24.2664 42.5737 25.0795 42.1221C25.6535 41.7966 26.181 41.8223 26.7292 42.1943C27.3485 42.6176 27.9531 43.0508 28.5784 43.4779C29.134 43.8584 29.5293 43.845 30.0237 43.3739C30.4631 42.9603 30.8804 42.5259 31.3075 42.0964C31.8362 41.5592 31.8729 41.1725 31.4544 40.5326C31.0615 39.9318 30.6381 39.3518 30.2306 38.7657C29.8634 38.2383 29.7765 37.7109 30.1082 37.1199C30.576 36.2653 30.9447 35.36 31.2072 34.4218C31.3295 33.9984 31.5498 33.6178 32.0075 33.504C32.9369 33.2527 33.8873 33.0864 34.8468 33.0073C35.559 32.9632 36.0547 33.3499 36.1416 33.9335C36.2285 34.5172 35.8062 35.0593 35.1295 35.2257Z" fill="#232323" />
    <path d="M27.442 31.0114C27.4604 35.1265 24.3164 38.7399 20.2069 39.3504C19.7675 39.4153 19.3306 39.4202 18.9317 39.4447C17.7438 39.4438 16.5692 39.1945 15.4833 38.7129C14.3975 38.2313 13.4243 37.528 12.6264 36.6481C11.8285 35.7683 11.2233 34.7313 10.8499 33.6038C10.4765 32.4763 10.343 31.2832 10.458 30.101C10.8557 25.8354 14.6189 22.4068 18.8717 22.4338C19.209 22.4305 19.5347 22.5563 19.7823 22.7853C20.0298 23.0144 20.1804 23.3295 20.2032 23.6659C20.2141 23.9967 20.094 24.3184 19.869 24.5611C19.6439 24.8038 19.3321 24.9478 19.0014 24.9618C17.5022 25.0315 16.1561 25.4512 15.0142 26.4558C13.1137 28.1163 12.4724 30.7385 13.3866 33.1344C14.253 35.403 16.5171 36.9277 18.9892 36.8983C22.1172 36.864 24.626 34.5012 24.8635 31.3589C24.9014 30.8695 24.9038 30.3702 25.3187 30.0129C25.7103 29.6789 26.1631 29.5651 26.638 29.7755C26.8836 29.8728 27.093 30.0439 27.237 30.2653C27.3811 30.4868 27.4527 30.7475 27.442 31.0114Z" fill="#232323" />
    <path d="M34.7058 9.08692C33.5054 9.0891 32.3325 9.44674 31.3352 10.1147C30.3379 10.7827 29.5608 11.7311 29.102 12.8402C28.6432 13.9493 28.5232 15.1694 28.7572 16.3466C28.9912 17.5238 29.5687 18.6053 30.4169 19.4547C31.265 20.3041 32.3457 20.8832 33.5227 21.1191C34.6997 21.355 35.9202 21.237 37.0302 20.78C38.1402 20.323 39.09 19.5476 39.7597 18.5515C40.4293 17.5554 40.7889 16.3833 40.793 15.183C40.7953 14.3827 40.6394 13.5898 40.3345 12.8498C40.0295 12.1098 39.5813 11.4373 39.0157 10.8709C38.4502 10.3045 37.7783 9.85531 37.0387 9.54918C36.2991 9.24304 35.5063 9.08595 34.7058 9.08692ZM34.7278 18.6887C33.7975 18.6927 32.9033 18.3287 32.2403 17.6761C31.5773 17.0235 31.1992 16.1352 31.1886 15.2051C31.1653 13.2644 32.7795 11.6223 34.696 11.6308C35.1595 11.6288 35.6189 11.718 36.0479 11.8934C36.4769 12.0688 36.8672 12.327 37.1964 12.6532C37.5256 12.9794 37.7873 13.3673 37.9666 13.7946C38.1459 14.222 38.2393 14.6805 38.2414 15.1439C38.2435 15.6073 38.1543 16.0666 37.9788 16.4956C37.8034 16.9245 37.5451 17.3147 37.2189 17.6439C36.8926 17.9731 36.5047 18.2348 36.0773 18.414C35.6499 18.5933 35.1913 18.6867 34.7278 18.6887Z" fill="#232323" />
  </g>
  <defs>
    <clipPath id="clip0_2505_133437">
      <rect width="50" height="50" fill="white" />
    </clipPath>
  </defs>
</svg>